# write_obj (c) 2004 Gabriel Peyr?
g
mtllib segment.mtl
v 1.010000 -0.000000 29.453615
v 0.996225 -0.166241 29.453615
v 0.955275 -0.327946 29.453615
v 0.888268 -0.480707 29.453615
v 0.797032 -0.620355 29.453615
v 0.684054 -0.743081 29.453615
v 0.552418 -0.845538 29.453615
v 0.405712 -0.924931 29.453615
v 0.247940 -0.979094 29.453615
v 0.083405 -1.006550 29.453615
v -0.083405 -1.006550 29.453615
v -0.247940 -0.979094 29.453615
v -0.405712 -0.924931 29.453615
v -0.552418 -0.845538 29.453615
v -0.684054 -0.743081 29.453615
v -0.797032 -0.620355 29.453615
v -0.888268 -0.480707 29.453615
v -0.955275 -0.327946 29.453615
v -0.996225 -0.166241 29.453615
v -1.010000 0.000000 29.453615
v 1.010000 -0.000000 29.568533
v 0.996225 -0.166241 29.568533
v 0.955275 -0.327946 29.568533
v 0.888268 -0.480707 29.568533
v 0.797032 -0.620355 29.568533
v 0.684054 -0.743081 29.568533
v 0.552418 -0.845538 29.568533
v 0.405712 -0.924931 29.568533
v 0.247940 -0.979094 29.568533
v 0.083405 -1.006550 29.568533
v -0.083405 -1.006550 29.568533
v -0.247940 -0.979094 29.568533
v -0.405712 -0.924931 29.568533
v -0.552418 -0.845538 29.568533
v -0.684054 -0.743081 29.568533
v -0.797032 -0.620355 29.568533
v -0.888268 -0.480707 29.568533
v -0.955275 -0.327946 29.568533
v -0.996225 -0.166241 29.568533
v -1.010000 0.000000 29.568533
vt 0.000000 0.000000
vt 0.050000 0.000000
vt 0.100000 0.000000
vt 0.150000 0.000000
vt 0.200000 0.000000
vt 0.250000 0.000000
vt 0.300000 0.000000
vt 0.350000 0.000000
vt 0.400000 0.000000
vt 0.450000 0.000000
vt 0.500000 0.000000
vt 0.550000 0.000000
vt 0.600000 0.000000
vt 0.650000 0.000000
vt 0.700000 0.000000
vt 0.750000 0.000000
vt 0.800000 0.000000
vt 0.850000 0.000000
vt 0.900000 0.000000
vt 0.950000 0.000000
vt 1.0 0.000000
vt 0.000000 1.000000
vt 0.050000 1.000000
vt 0.100000 1.000000
vt 0.150000 1.000000
vt 0.200000 1.000000
vt 0.250000 1.000000
vt 0.300000 1.000000
vt 0.350000 1.000000
vt 0.400000 1.000000
vt 0.450000 1.000000
vt 0.500000 1.000000
vt 0.550000 1.000000
vt 0.600000 1.000000
vt 0.650000 1.000000
vt 0.700000 1.000000
vt 0.750000 1.000000
vt 0.800000 1.000000
vt 0.850000 1.000000
vt 0.900000 1.000000
vt 0.950000 1.000000
vt 1.0 1.000000
vn 0.996533 -0.082575 0.000000
vn 0.969350 -0.245473 0.000000
vn 0.915726 -0.401674 0.000000
vn 0.837123 -0.546920 0.000000
vn 0.735686 -0.677246 0.000000
vn 0.614181 -0.789099 0.000000
vn 0.475923 -0.879428 0.000000
vn 0.324683 -0.945768 0.000000
vn 0.164586 -0.986310 0.000000
vn -0.000000 -0.999948 0.000000
vn -0.164586 -0.986310 0.000000
vn -0.324683 -0.945768 0.000000
vn -0.475923 -0.879428 0.000000
vn -0.614181 -0.789099 0.000000
vn -0.735686 -0.677246 0.000000
vn -0.837123 -0.546920 0.000000
vn -0.915726 -0.401674 0.000000
vn -0.969350 -0.245473 0.000000
vn 0.996533 0.082575 -0.000000
vn 0.000000 0.999996 -0.000000
usemtl Segment
f 1/1/1 21/22/1 22/23/1 2/2/1
f 2/2/2 22/23/2 23/24/2 3/3/2
f 3/3/3 23/24/3 24/25/3 4/4/3
f 4/4/4 24/25/4 25/26/4 5/5/4
f 5/5/5 25/26/5 26/27/5 6/6/5
f 6/6/6 26/27/6 27/28/6 7/7/6
f 7/7/7 27/28/7 28/29/7 8/8/7
f 8/8/8 28/29/8 29/30/8 9/9/8
f 9/9/9 29/30/9 30/31/9 10/10/9
f 10/10/10 30/31/10 31/32/10 11/11/10
f 11/11/11 31/32/11 32/33/11 12/12/11
f 12/12/12 32/33/12 33/34/12 13/13/12
f 13/13/13 33/34/13 34/35/13 14/14/13
f 14/14/14 34/35/14 35/36/14 15/15/14
f 15/15/15 35/36/15 36/37/15 16/16/15
f 16/16/16 36/37/16 37/38/16 17/17/16
f 17/17/17 37/38/17 38/39/17 18/18/17
f 18/18/18 38/39/18 39/40/18 19/19/18
f 19/19/19 39/40/19 40/41/19 20/20/19
f 20/20/20 40/41/20 21/42/20 1/21/20