# write_obj (c) 2004 Gabriel Peyr?
g
mtllib segment.mtl
v 0.261407 -0.975585 39.152737
v 0.288190 -0.968012 39.152737
v 0.314753 -0.959703 39.152737
v 0.341078 -0.950666 39.152737
v 0.367143 -0.940907 39.152737
v 0.392930 -0.930433 39.152737
v 0.418418 -0.919253 39.152737
v 0.443589 -0.907375 39.152737
v 0.468422 -0.894808 39.152737
v 0.492900 -0.881561 39.152737
v 0.517004 -0.867644 39.152737
v 0.540715 -0.853069 39.152737
v 0.564015 -0.837846 39.152737
v 0.586888 -0.821987 39.152737
v 0.609314 -0.805504 39.152737
v 0.631278 -0.788409 39.152737
v 0.652762 -0.770715 39.152737
v 0.673751 -0.752436 39.152737
v 0.694228 -0.733585 39.152737
v 0.714178 -0.714178 39.152737
v 0.261407 -0.975585 39.267656
v 0.288190 -0.968012 39.267656
v 0.314753 -0.959703 39.267656
v 0.341078 -0.950666 39.267656
v 0.367143 -0.940907 39.267656
v 0.392930 -0.930433 39.267656
v 0.418418 -0.919253 39.267656
v 0.443589 -0.907375 39.267656
v 0.468422 -0.894808 39.267656
v 0.492900 -0.881561 39.267656
v 0.517004 -0.867644 39.267656
v 0.540715 -0.853069 39.267656
v 0.564015 -0.837846 39.267656
v 0.586888 -0.821987 39.267656
v 0.609314 -0.805504 39.267656
v 0.631278 -0.788409 39.267656
v 0.652762 -0.770715 39.267656
v 0.673751 -0.752436 39.267656
v 0.694228 -0.733585 39.267656
v 0.714178 -0.714178 39.267656
vt 0.000000 0.000000
vt 0.050000 0.000000
vt 0.100000 0.000000
vt 0.150000 0.000000
vt 0.200000 0.000000
vt 0.250000 0.000000
vt 0.300000 0.000000
vt 0.350000 0.000000
vt 0.400000 0.000000
vt 0.450000 0.000000
vt 0.500000 0.000000
vt 0.550000 0.000000
vt 0.600000 0.000000
vt 0.650000 0.000000
vt 0.700000 0.000000
vt 0.750000 0.000000
vt 0.800000 0.000000
vt 0.850000 0.000000
vt 0.900000 0.000000
vt 0.950000 0.000000
vt 1.0 0.000000
vt 0.000000 1.000000
vt 0.050000 1.000000
vt 0.100000 1.000000
vt 0.150000 1.000000
vt 0.200000 1.000000
vt 0.250000 1.000000
vt 0.300000 1.000000
vt 0.350000 1.000000
vt 0.400000 1.000000
vt 0.450000 1.000000
vt 0.500000 1.000000
vt 0.550000 1.000000
vt 0.600000 1.000000
vt 0.650000 1.000000
vt 0.700000 1.000000
vt 0.750000 1.000000
vt 0.800000 1.000000
vt 0.850000 1.000000
vt 0.900000 1.000000
vt 0.950000 1.000000
vt 1.0 1.000000
vn -0.272018 0.961967 0.000000
vn -0.298422 0.954107 0.000000
vn -0.324598 0.945522 0.000000
vn -0.350528 0.936219 0.000000
vn -0.376192 0.926204 0.000000
vn -0.401570 0.915487 0.000000
vn -0.426643 0.904075 0.000000
vn -0.451392 0.891975 0.000000
vn -0.475799 0.879199 0.000000
vn -0.499844 0.865755 0.000000
vn -0.523509 0.851653 0.000000
vn -0.546777 0.836905 0.000000
vn -0.569630 0.821521 0.000000
vn -0.592050 0.805513 0.000000
vn -0.614021 0.788894 0.000000
vn -0.635525 0.771675 0.000000
vn -0.656547 0.753871 0.000000
vn -0.677070 0.735494 0.000000
vn -0.697079 0.716558 0.000000
vn 0.499992 -0.866011 0.000000
usemtl Segment
f 1/1/1 21/22/1 22/23/1 2/2/1
f 2/2/2 22/23/2 23/24/2 3/3/2
f 3/3/3 23/24/3 24/25/3 4/4/3
f 4/4/4 24/25/4 25/26/4 5/5/4
f 5/5/5 25/26/5 26/27/5 6/6/5
f 6/6/6 26/27/6 27/28/6 7/7/6
f 7/7/7 27/28/7 28/29/7 8/8/7
f 8/8/8 28/29/8 29/30/8 9/9/8
f 9/9/9 29/30/9 30/31/9 10/10/9
f 10/10/10 30/31/10 31/32/10 11/11/10
f 11/11/11 31/32/11 32/33/11 12/12/11
f 12/12/12 32/33/12 33/34/12 13/13/12
f 13/13/13 33/34/13 34/35/13 14/14/13
f 14/14/14 34/35/14 35/36/14 15/15/14
f 15/15/15 35/36/15 36/37/15 16/16/15
f 16/16/16 36/37/16 37/38/16 17/17/16
f 17/17/17 37/38/17 38/39/17 18/18/17
f 18/18/18 38/39/18 39/40/18 19/19/18
f 19/19/19 39/40/19 40/41/19 20/20/19
f 20/20/20 40/41/20 21/42/20 1/21/20