# write_obj (c) 2004 Gabriel Peyr?
g
mtllib segment.mtl
v 0.023423 -1.049739 7.447916
v 0.043175 -1.049112 7.447916
v 0.062911 -1.048114 7.447916
v 0.082625 -1.046744 7.447916
v 0.102310 -1.045004 7.447916
v 0.121959 -1.042893 7.447916
v 0.141565 -1.040413 7.447916
v 0.161120 -1.037565 7.447916
v 0.180618 -1.034349 7.447916
v 0.200053 -1.030766 7.447916
v 0.023423 -1.049739 7.498023
v 0.043175 -1.049112 7.498023
v 0.062911 -1.048114 7.498023
v 0.082625 -1.046744 7.498023
v 0.102310 -1.045004 7.498023
v 0.121959 -1.042893 7.498023
v 0.141565 -1.040413 7.498023
v 0.161120 -1.037565 7.498023
v 0.180618 -1.034349 7.498023
v 0.200053 -1.030766 7.498023
vt 0.000000 0.000000
vt 0.100000 0.000000
vt 0.200000 0.000000
vt 0.300000 0.000000
vt 0.400000 0.000000
vt 0.500000 0.000000
vt 0.600000 0.000000
vt 0.700000 0.000000
vt 0.800000 0.000000
vt 0.900000 0.000000
vt 1.0 0.000000
vt 0.000000 1.000000
vt 0.100000 1.000000
vt 0.200000 1.000000
vt 0.300000 1.000000
vt 0.400000 1.000000
vt 0.500000 1.000000
vt 0.600000 1.000000
vt 0.700000 1.000000
vt 0.800000 1.000000
vt 0.900000 1.000000
vt 1.0 1.000000
vn -0.031715 0.999497 0.000000
vn -0.050519 0.998723 0.000000
vn -0.069306 0.997595 0.000000
vn -0.088069 0.996114 0.000000
vn -0.106800 0.994281 0.000000
vn -0.125493 0.992095 0.000000
vn -0.144142 0.989557 0.000000
vn -0.162740 0.986669 0.000000
vn -0.181280 0.983432 0.000000
vn 0.106800 -0.994281 0.000000
usemtl Segment
f 1/1/1 11/12/1 12/13/1 2/2/1
f 2/2/2 12/13/2 13/14/2 3/3/2
f 3/3/3 13/14/3 14/15/3 4/4/3
f 4/4/4 14/15/4 15/16/4 5/5/4
f 5/5/5 15/16/5 16/17/5 6/6/5
f 6/6/6 16/17/6 17/18/6 7/7/6
f 7/7/7 17/18/7 18/19/7 8/8/7
f 8/8/8 18/19/8 19/20/8 9/9/8
f 9/9/9 19/20/9 20/21/9 10/10/9
f 10/10/10 20/21/10 11/22/10 1/11/10