# write_obj (c) 2004 Gabriel Peyr?
g
mtllib segment.mtl
v 0.678742 -0.801130 22.994886
v 0.722472 -0.761928 22.994886
v 0.763941 -0.720344 22.994886
v 0.803020 -0.676505 22.994886
v 0.839587 -0.630551 22.994886
v 0.873527 -0.582623 22.994886
v 0.904735 -0.532874 22.994886
v 0.933113 -0.481457 22.994886
v 0.958571 -0.428534 22.994886
v 0.981031 -0.374270 22.994886
v 0.678742 -0.801130 23.038161
v 0.722472 -0.761928 23.038161
v 0.763941 -0.720344 23.038161
v 0.803020 -0.676505 23.038161
v 0.839587 -0.630551 23.038161
v 0.873527 -0.582623 23.038161
v 0.904735 -0.532874 23.038161
v 0.933113 -0.481457 23.038161
v 0.958571 -0.428534 23.038161
v 0.981031 -0.374270 23.038161
vt 0.000000 0.000000
vt 0.100000 0.000000
vt 0.200000 0.000000
vt 0.300000 0.000000
vt 0.400000 0.000000
vt 0.500000 0.000000
vt 0.600000 0.000000
vt 0.700000 0.000000
vt 0.800000 0.000000
vt 0.900000 0.000000
vt 1.0 0.000000
vt 0.000000 1.000000
vt 0.100000 1.000000
vt 0.200000 1.000000
vt 0.300000 1.000000
vt 0.400000 1.000000
vt 0.500000 1.000000
vt 0.600000 1.000000
vt 0.700000 1.000000
vt 0.800000 1.000000
vt 0.900000 1.000000
vt 1.0 1.000000
vn -0.667506 0.744605 0.000000
vn -0.708092 0.706120 0.000000
vn -0.746463 0.665426 0.000000
vn -0.782500 0.622651 0.000000
vn -0.816088 0.577928 0.000000
vn -0.847123 0.531397 0.000000
vn -0.875508 0.483203 0.000000
vn -0.901154 0.433498 0.000000
vn -0.923982 0.382437 0.000000
vn 0.816088 -0.577928 0.000000
usemtl Segment
f 1/1/1 11/12/1 12/13/1 2/2/1
f 2/2/2 12/13/2 13/14/2 3/3/2
f 3/3/3 13/14/3 14/15/3 4/4/3
f 4/4/4 14/15/4 15/16/4 5/5/4
f 5/5/5 15/16/5 16/17/5 6/6/5
f 6/6/6 16/17/6 17/18/6 7/7/6
f 7/7/7 17/18/7 18/19/7 8/8/7
f 8/8/8 18/19/8 19/20/8 9/9/8
f 9/9/9 19/20/9 20/21/9 10/10/9
f 10/10/10 20/21/10 11/22/10 1/11/10