# write_obj (c) 2004 Gabriel Peyr?
g
mtllib segment.mtl
v -0.192928 -1.032123 52.758702
v -0.133867 -1.041432 52.758702
v -0.074372 -1.047363 52.758702
v -0.014637 -1.049898 52.758702
v 0.045147 -1.049029 52.758702
v 0.104784 -1.044759 52.758702
v 0.164081 -1.037100 52.758702
v 0.222846 -1.026080 52.758702
v 0.280889 -1.011732 52.758702
v 0.338021 -0.994104 52.758702
v -0.192928 -1.032123 52.968242
v -0.133867 -1.041432 52.968242
v -0.074372 -1.047363 52.968242
v -0.014637 -1.049898 52.968242
v 0.045147 -1.049029 52.968242
v 0.104784 -1.044759 52.968242
v 0.164081 -1.037100 52.968242
v 0.222846 -1.026080 52.968242
v 0.280889 -1.011732 52.968242
v 0.338021 -0.994104 52.968242
vt 0.000000 0.000000
vt 0.100000 0.000000
vt 0.200000 0.000000
vt 0.300000 0.000000
vt 0.400000 0.000000
vt 0.500000 0.000000
vt 0.600000 0.000000
vt 0.700000 0.000000
vt 0.800000 0.000000
vt 0.900000 0.000000
vt 1.0 0.000000
vt 0.000000 1.000000
vt 0.100000 1.000000
vt 0.200000 1.000000
vt 0.300000 1.000000
vt 0.400000 1.000000
vt 0.500000 1.000000
vt 0.600000 1.000000
vt 0.700000 1.000000
vt 0.800000 1.000000
vt 0.900000 1.000000
vt 1.0 1.000000
vn 0.155680 0.987808 -0.000000
vn 0.099202 0.995067 -0.000000
vn 0.042402 0.999101 -0.000000
vn -0.014535 0.999894 0.000000
vn -0.071425 0.997446 0.000000
vn -0.128083 0.991763 0.000000
vn -0.184326 0.982865 0.000000
vn -0.239971 0.970780 0.000000
vn -0.294838 0.955547 0.000000
vn 0.071425 -0.997446 0.000000
usemtl Segment
f 1/1/1 11/12/1 12/13/1 2/2/1
f 2/2/2 12/13/2 13/14/2 3/3/2
f 3/3/3 13/14/3 14/15/3 4/4/3
f 4/4/4 14/15/4 15/16/4 5/5/4
f 5/5/5 15/16/5 16/17/5 6/6/5
f 6/6/6 16/17/6 17/18/6 7/7/6
f 7/7/7 17/18/7 18/19/7 8/8/7
f 8/8/8 18/19/8 19/20/8 9/9/8
f 9/9/9 19/20/9 20/21/9 10/10/9
f 10/10/10 20/21/10 11/22/10 1/11/10