# write_obj (c) 2004 Gabriel Peyr?
g
mtllib segment.mtl
v -0.251339 -1.019475 29.729781
v -0.192332 -1.032235 29.729781
v -0.132690 -1.041582 29.729781
v -0.072609 -1.047486 29.729781
v -0.012289 -1.049928 29.729781
v 0.048073 -1.048899 29.729781
v 0.108275 -1.044402 29.729781
v 0.168120 -1.036453 29.729781
v 0.227408 -1.025078 29.729781
v 0.285945 -1.010314 29.729781
v -0.251339 -1.019475 29.845939
v -0.192332 -1.032235 29.845939
v -0.132690 -1.041582 29.845939
v -0.072609 -1.047486 29.845939
v -0.012289 -1.049928 29.845939
v 0.048073 -1.048899 29.845939
v 0.108275 -1.044402 29.845939
v 0.168120 -1.036453 29.845939
v 0.227408 -1.025078 29.845939
v 0.285945 -1.010314 29.845939
vt 0.000000 0.000000
vt 0.100000 0.000000
vt 0.200000 0.000000
vt 0.300000 0.000000
vt 0.400000 0.000000
vt 0.500000 0.000000
vt 0.600000 0.000000
vt 0.700000 0.000000
vt 0.800000 0.000000
vt 0.900000 0.000000
vt 1.0 0.000000
vt 0.000000 1.000000
vt 0.100000 1.000000
vt 0.200000 1.000000
vt 0.300000 1.000000
vt 0.400000 1.000000
vt 0.500000 1.000000
vt 0.600000 1.000000
vt 0.700000 1.000000
vt 0.800000 1.000000
vt 0.900000 1.000000
vt 1.0 1.000000
vn 0.211359 0.977408 -0.000000
vn 0.154837 0.987940 -0.000000
vn 0.097802 0.995206 -0.000000
vn 0.040444 0.999182 -0.000000
vn -0.017047 0.999855 0.000000
vn -0.074482 0.997222 0.000000
vn -0.131671 0.991293 0.000000
vn -0.188424 0.982088 0.000000
vn -0.244555 0.969635 0.000000
vn 0.017047 -0.999855 0.000000
usemtl Segment
f 1/1/1 11/12/1 12/13/1 2/2/1
f 2/2/2 12/13/2 13/14/2 3/3/2
f 3/3/3 13/14/3 14/15/3 4/4/3
f 4/4/4 14/15/4 15/16/4 5/5/4
f 5/5/5 15/16/5 16/17/5 6/6/5
f 6/6/6 16/17/6 17/18/6 7/7/6
f 7/7/7 17/18/7 18/19/7 8/8/7
f 8/8/8 18/19/8 19/20/8 9/9/8
f 9/9/9 19/20/9 20/21/9 10/10/9
f 10/10/10 20/21/10 11/22/10 1/11/10